# xmcd
#
# Track frame offsets:
#	182
#	24712
#	62332
#	103500
#	135387
#	148800
#	187312
#
# Disc length: 3008 seconds
#
# Revision: 2
# Processed by: cddbd v1.4PL0 Copyright (c) Steve Scherf et al.
# Submitted via: EZCDDA 4.3.2
#
DISCID=620bbe07
DTITLE=XIMO TÉBAR LIVE IN TRIO WITH LOU BENNET and IDRIS MUHAMMAD - HELLO MR. BE
DTITLE=NNETT
DYEAR=1900
DGENRE=
TTITLE0=SOME BLUES
TTITLE1=ALONE TOGHETER
TTITLE2=OLD FOLKS 
TTITLE3=PENTATIUS
TTITLE4=LAMENT
TTITLE5=JUST FRIENDS
TTITLE6=Pista 7
EXTD=
EXTT0=
EXTT1=
EXTT2=
EXTT3=
EXTT4=
EXTT5=
EXTT6=
PLAYORDER=
